<svg width="1920" height="1080" viewBox="0 0 1920 1080" xmlns="http://www.w3.org/2000/svg">
  <defs>
    <linearGradient id="bggrad" x1="0%" y1="0%" x2="100%" y2="100%">
      <stop offset="0%" stop-color="#0A2540" stop-opacity="0.04"/>
      <stop offset="100%" stop-color="#1FC1B5" stop-opacity="0.04"/>
    </linearGradient>
  </defs>

  <!-- big faint logo ring -->
  <g transform="translate(960,540)">
    <circle cx="0" cy="0" r="420" fill="none" stroke="url(#bggrad)" stroke-width="40" />
    <line x1="0" y1="-500" x2="0" y2="-560" stroke="#0A2540" stroke-width="24" opacity="0.08" transform="rotate(0)" /><line x1="0" y1="-500" x2="0" y2="-560" stroke="#0A2540" stroke-width="24" opacity="0.08" transform="rotate(30)" /><line x1="0" y1="-500" x2="0" y2="-560" stroke="#0A2540" stroke-width="24" opacity="0.08" transform="rotate(60)" /><line x1="0" y1="-500" x2="0" y2="-560" stroke="#0A2540" stroke-width="24" opacity="0.08" transform="rotate(90)" /><line x1="0" y1="-500" x2="0" y2="-560" stroke="#0A2540" stroke-width="24" opacity="0.08" transform="rotate(120)" /><line x1="0" y1="-500" x2="0" y2="-560" stroke="#0A2540" stroke-width="24" opacity="0.08" transform="rotate(150)" /><line x1="0" y1="-500" x2="0" y2="-560" stroke="#0A2540" stroke-width="24" opacity="0.08" transform="rotate(180)" /><line x1="0" y1="-500" x2="0" y2="-560" stroke="#0A2540" stroke-width="24" opacity="0.08" transform="rotate(210)" /><line x1="0" y1="-500" x2="0" y2="-560" stroke="#0A2540" stroke-width="24" opacity="0.08" transform="rotate(240)" /><line x1="0" y1="-500" x2="0" y2="-560" stroke="#0A2540" stroke-width="24" opacity="0.08" transform="rotate(270)" /><line x1="0" y1="-500" x2="0" y2="-560" stroke="#0A2540" stroke-width="24" opacity="0.08" transform="rotate(300)" /><line x1="0" y1="-500" x2="0" y2="-560" stroke="#0A2540" stroke-width="24" opacity="0.08" transform="rotate(330)" />
    <circle cx="0" cy="0" r="260" fill="none" stroke="#0A2540" stroke-width="18" opacity="0.05" />
  </g>

  <!-- huge bas12 text watermark -->
  <text x="50%" y="52%" dominant-baseline="middle" text-anchor="middle"
        font-family="Inter, system-ui, -apple-system, Segoe UI, Roboto, Helvetica, Arial, sans-serif"
        font-size="240" font-weight="800" fill="#0A2540" opacity="0.06" letter-spacing="2">
    bas<tspan fill="#0A2540" opacity="0.10">12</tspan>
  </text>
</svg>